<svg width="48" height="48" viewBox="0 0 48 48" fill="none" xmlns="http://www.w3.org/2000/svg">
<g clip-path="url(#clip0_6760_796)">
<path d="M46.3207 6.22235C45.8266 3.852 44.4445 2.27153 41.7776 1.67929C37.4322 0.592941 31.0122 0 24 0C16.9878 0 10.5678 0.592941 6.22235 1.67929C3.55553 2.27224 2.17271 3.852 1.67929 6.22235C0.691059 10.3701 0 16.9878 0 24C0 31.0122 0.691059 37.6299 1.67929 41.7776C2.17341 44.148 3.55553 45.7285 6.22235 46.3207C10.5678 47.4071 16.9878 48 24 48C31.0122 48 37.4322 47.4071 41.7776 46.3207C44.4445 45.7278 45.8273 44.148 46.3207 41.7776C47.3082 37.6292 48 31.0122 48 24C48 16.9878 47.3089 10.3701 46.3207 6.22235ZM34.5868 22.008L40.4471 20.9654V24.0233H34.5868V22.008ZM8.82565 37.668H5.30471V25.6447H8.82565V37.668ZM7.06518 24.3939C5.83765 24.3939 4.98071 23.5828 4.98071 22.3786C4.98071 21.1744 5.83765 20.3626 7.06518 20.3626C8.29271 20.3626 9.15035 21.1736 9.15035 22.3786C9.15035 23.5835 8.29341 24.3939 7.06518 24.3939ZM18.5089 28.3786H15.4511V33.2894C15.4511 34.5635 15.9607 35.1198 17.0958 35.1198C17.6287 35.1198 18.0918 35.0506 18.3473 34.9807V37.668C17.9534 37.7838 17.1431 37.8995 16.1696 37.8995C13.4591 37.8995 11.9301 36.4398 11.9301 33.5209V28.3779H10.1696V25.6447H11.9301V22.6327L15.4518 22.0073V25.6447H18.5096V28.3779L18.5089 28.3786ZM30.2308 37.668H26.9414L26.8948 36.4172C26.1769 37.3899 25.1569 37.9694 23.7438 37.9694C21.2188 37.9694 19.62 36.5329 19.62 34.2628C19.62 31.6454 21.9593 30.1165 25.6659 30.1165C26.1064 30.1165 26.5694 30.1398 26.8475 30.1631C26.8475 28.8656 25.944 28.1245 24.3226 28.1245C23.0252 28.1245 21.6353 28.4492 20.2454 28.9821V26.1558C21.6586 25.6228 23.1184 25.3447 24.8781 25.3447C28.3073 25.3447 30.2294 27.1751 30.2294 30.6035V37.6694L30.2308 37.668ZM42.6939 37.668H39.312L39.2654 36.3713C38.4776 37.4365 37.4816 37.9694 36.0219 37.9694C33.5435 37.9694 31.968 36.2089 31.968 33.4525V25.6454H35.4889V32.8729C35.4889 34.3327 36.1144 35.1198 37.2727 35.1198C38.4311 35.1198 39.1722 34.1936 39.1722 32.7339V25.6454H42.6932V37.6687L42.6939 37.668Z" fill="#FF6200"/>
<path d="M23.0266 33.9847C23.0266 34.9581 23.6986 35.4445 24.7871 35.4445C26.0146 35.4445 26.8722 34.5642 26.8722 33.2901V32.3407C26.7099 32.3174 26.2694 32.2941 25.9913 32.2941C24.0918 32.2941 23.0259 32.8737 23.0259 33.9854L23.0266 33.9847Z" fill="#FF6200"/>
</g>
<defs>
<clipPath id="clip0_6760_796">
<rect width="48" height="48" fill="white"/>
</clipPath>
</defs>
</svg>
